<svg width="24" height="24" viewBox="0 0 24 24" fill="none" xmlns="http://www.w3.org/2000/svg">
<path d="M19.488 21L13.224 14.7C12.7269 15.1 12.1552 15.4167 11.5089 15.65C10.8626 15.8833 10.1749 16 9.44572 16C7.63944 16 6.11089 15.3707 4.86008 14.112C3.60926 12.8533 2.98353 11.316 2.98286 9.5C2.98286 7.68333 3.6086 6.146 4.86008 4.888C6.11155 3.63 7.6401 3.00067 9.44572 3C11.252 3 12.7806 3.62933 14.0314 4.888C15.2822 6.14667 15.9079 7.684 15.9086 9.5C15.9086 10.2333 15.7926 10.925 15.5606 11.575C15.3286 12.225 15.0137 12.8 14.616 13.3L20.88 19.6L19.488 21ZM9.44572 14C10.6886 14 11.7452 13.5623 12.6155 12.687C13.4858 11.8117 13.9207 10.7493 13.92 9.5C13.92 8.25 13.4848 7.18733 12.6145 6.312C11.7442 5.43667 10.6879 4.99933 9.44572 5C8.20286 5 7.14627 5.43767 6.27594 6.313C5.40561 7.18833 4.97077 8.25067 4.97144 9.5C4.97144 10.75 5.4066 11.8127 6.27693 12.688C7.14727 13.5633 8.20353 14.0007 9.44572 14Z" fill="#1E1E1E" fill-opacity="0.4"/>
</svg>
