<svg width="100" height="100" viewBox="0 0 100 100" fill="none" xmlns="http://www.w3.org/2000/svg">
<path d="M37.5 44.5C38.8261 44.5 40.0979 43.9732 41.0355 43.0355C41.9732 42.0979 42.5 40.8261 42.5 39.5C42.5 38.1739 41.9732 36.9021 41.0355 35.9645C40.0979 35.0268 38.8261 34.5 37.5 34.5C36.1739 34.5 34.9021 35.0268 33.9645 35.9645C33.0268 36.9021 32.5 38.1739 32.5 39.5C32.5 40.8261 33.0268 42.0979 33.9645 43.0355C34.9021 43.9732 36.1739 44.5 37.5 44.5ZM67.5 39.5C67.5 40.8261 66.9732 42.0979 66.0355 43.0355C65.0979 43.9732 63.8261 44.5 62.5 44.5C61.1739 44.5 59.9021 43.9732 58.9645 43.0355C58.0268 42.0979 57.5 40.8261 57.5 39.5C57.5 38.1739 58.0268 36.9021 58.9645 35.9645C59.9021 35.0268 61.1739 34.5 62.5 34.5C63.8261 34.5 65.0979 35.0268 66.0355 35.9645C66.9732 36.9021 67.5 38.1739 67.5 39.5ZM67.81 63.95C67.295 64.3616 66.6383 64.5531 65.9828 64.4829C65.3273 64.4127 64.7261 64.0864 64.31 63.575L64.295 63.56C64.0784 63.3202 63.8498 63.0916 63.61 62.875C62.8304 62.1733 61.981 61.5534 61.075 61.025C58.77 59.675 55.14 58.25 50.01 58.25C44.88 58.25 41.245 59.67 38.93 61.03C38.0226 61.5587 37.1715 62.1786 36.39 62.88C36.1486 63.0965 35.9183 63.3252 35.7 63.565L35.685 63.58C35.4782 63.8351 35.2231 64.047 34.9344 64.2035C34.6457 64.36 34.329 64.4581 34.0024 64.4922C33.6757 64.5264 33.3456 64.4958 33.0308 64.4024C32.7159 64.3089 32.4226 64.1543 32.1675 63.9475C31.9124 63.7407 31.7006 63.4856 31.544 63.1969C31.3875 62.9082 31.2894 62.5915 31.2553 62.2649C31.2211 61.9382 31.2517 61.6081 31.3451 61.2933C31.4386 60.9784 31.5932 60.6851 31.8 60.43L33.75 62L31.8 60.435V60.43L31.81 60.425L31.82 60.415L31.845 60.385L31.915 60.295L32.16 60.025C32.36 59.81 32.65 59.515 33.03 59.175C33.79 58.485 34.905 57.595 36.4 56.72C39.4 54.955 43.9 53.25 50.01 53.25C56.115 53.25 60.61 54.95 63.61 56.72C65.11 57.6 66.22 58.485 66.975 59.17C67.3653 59.5262 67.7358 59.9034 68.085 60.3L68.16 60.385L68.185 60.415L68.195 60.43C68.195 60.43 68.2 60.44 66.25 62L68.2 60.44C68.613 60.9575 68.8039 61.6176 68.7308 62.2756C68.6577 62.9337 68.3265 63.5358 67.81 63.95ZM50 7C39.3913 7 29.2172 11.2143 21.7157 18.7157C14.2143 26.2172 10 36.3913 10 47C10 57.6087 14.2143 67.7828 21.7157 75.2843C29.2172 82.7857 39.3913 87 50 87C60.6087 87 70.7828 82.7857 78.2843 75.2843C85.7857 67.7828 90 57.6087 90 47C90 36.3913 85.7857 26.2172 78.2843 18.7157C70.7828 11.2143 60.6087 7 50 7ZM15 47C15 42.4037 15.9053 37.8525 17.6642 33.6061C19.4231 29.3597 22.0012 25.5013 25.2513 22.2513C28.5013 19.0012 32.3597 16.4231 36.6061 14.6642C40.8525 12.9053 45.4037 12 50 12C54.5963 12 59.1475 12.9053 63.3939 14.6642C67.6403 16.4231 71.4987 19.0012 74.7487 22.2513C77.9988 25.5013 80.5769 29.3597 82.3358 33.6061C84.0947 37.8525 85 42.4037 85 47C85 56.2826 81.3125 65.185 74.7487 71.7487C68.185 78.3125 59.2826 82 50 82C40.7174 82 31.815 78.3125 25.2513 71.7487C18.6875 65.185 15 56.2826 15 47Z" fill="#323031"/>
</svg>
