<svg width="24" height="24" viewBox="0 0 24 24" fill="none" xmlns="http://www.w3.org/2000/svg">
<path d="M10 19C9.71667 19 9.479 18.904 9.287 18.712C9.095 18.52 8.99934 18.2827 9 18C9 17.7167 9.096 17.479 9.288 17.287C9.48 17.095 9.71734 16.9993 10 17H20C20.2833 17 20.521 17.096 20.713 17.288C20.905 17.48 21.0007 17.7173 21 18C21 18.2833 20.904 18.521 20.712 18.713C20.52 18.905 20.2827 19.0007 20 19H10ZM10 13C9.71667 13 9.479 12.904 9.287 12.712C9.095 12.52 8.99934 12.2827 9 12C9 11.7167 9.096 11.479 9.288 11.287C9.48 11.095 9.71734 10.9993 10 11H20C20.2833 11 20.521 11.096 20.713 11.288C20.905 11.48 21.0007 11.7173 21 12C21 12.2833 20.904 12.521 20.712 12.713C20.52 12.905 20.2827 13.0007 20 13H10ZM10 7C9.71667 7 9.479 6.904 9.287 6.712C9.095 6.52 8.99934 6.28267 9 6C9 5.71667 9.096 5.479 9.288 5.287C9.48 5.095 9.71734 4.99934 10 5H20C20.2833 5 20.521 5.096 20.713 5.288C20.905 5.48 21.0007 5.71734 21 6C21 6.28334 20.904 6.521 20.712 6.713C20.52 6.905 20.2827 7.00067 20 7H10ZM5 20C4.45 20 3.979 19.804 3.587 19.412C3.195 19.02 2.99934 18.5493 3 18C3 17.45 3.196 16.979 3.588 16.587C3.98 16.195 4.45067 15.9993 5 16C5.55 16 6.021 16.196 6.413 16.588C6.805 16.98 7.00067 17.4507 7 18C7 18.55 6.804 19.021 6.412 19.413C6.02 19.805 5.54934 20.0007 5 20ZM5 14C4.45 14 3.979 13.804 3.587 13.412C3.195 13.02 2.99934 12.5493 3 12C3 11.45 3.196 10.979 3.588 10.587C3.98 10.195 4.45067 9.99934 5 10C5.55 10 6.021 10.196 6.413 10.588C6.805 10.98 7.00067 11.4507 7 12C7 12.55 6.804 13.021 6.412 13.413C6.02 13.805 5.54934 14.0007 5 14ZM5 8C4.45 8 3.979 7.804 3.587 7.412C3.195 7.02 2.99934 6.54934 3 6C3 5.45 3.196 4.979 3.588 4.587C3.98 4.195 4.45067 3.99934 5 4C5.55 4 6.021 4.196 6.413 4.588C6.805 4.98 7.00067 5.45067 7 6C7 6.55 6.804 7.021 6.412 7.413C6.02 7.805 5.54934 8.00067 5 8Z" fill="#1E1E1E"/>
</svg>
